{
	"next_topic_id": 2,
	"topic": [
		{
			"topic_id": 1,
			"category": "movies",
			"title": "The Mandalorian (2019) S01E01 1080p HVEC x265",
			"torrent_imdb": "tt9095424",
			"body": "Unique ID : 234707001515299644497450987799232098536 (0xB092EC9AD545F462296C26C999E7B0E8)\nComplete name : The Mandalorian (2019) S01E01 Chapter One (1080p DSNYP Webrip x265 10bit EAC3 5.1 Atmos - Goki).mkv\nFormat : Matroska\nFormat version : Version 4\nFile size : 823 MiB\nDuration : 38 min 46 s\nOverall bit rate : 2 968 kb/s\nMovie name : The Mandalorian (2019) S01E01 Chapter One (1080p DSNYP Webrip x265 10bit EAC3 5.1 Atmos - Goki).mkv\nEncoded date : UTC 2019-11-12 12:17:41\nWriting application : mkvmerge v28.2.0 ('The Awakening') 64-bit\nWriting library : libebml v1.3.6 + libmatroska v1.4.9\n\nVideo\nID : 1\nFormat : HEVC\nFormat/Info : High Efficiency Video Coding\nFormat profile : Main 10@L4@Main\nCodec ID : V_MPEGH/ISO/HEVC\nDuration : 38 min 46 s\nBit rate : 2 198 kb/s\nWidth : 1 920 pixels\nHeight : 1 080 pixels\nDisplay aspect ratio : 16:9\nFrame rate mode : Constant\nFrame rate : 23.976 (24000/1001) FPS\nColor space : YUV\nChroma subsampling : 4:2:0\nBit depth : 10 bits\nBits/(Pixel*Frame) : 0.044\nStream size : 609 MiB (74%)\nWriting library : x265 2.9+8-27d8424c799d:[Windows][MSVC 1915][64 bit] 10bit\nEncoding settings : cpuid=1111039 / frame-threads=2 / numa-pools=6 / wpp / no-pmode / no-pme / no-psnr / no-ssim / log-level=2 / input-csp=1 / input-res=1920x1080 / interlace=0 / total-frames=0 / level-idc=0 / high-tier=1 / uhd-bd=0 / ref=4 / no-allow-non-conformance / no-repeat-headers / annexb / no-aud / no-hrd / info / hash=0 / no-temporal-layers / open-gop / min-keyint=23 / keyint=250 / gop-lookahead=0 / bframes=8 / b-adapt=2 / b-pyramid / bframe-bias=0 / rc-lookahead=100 / lookahead-slices=4 / scenecut=40 / radl=0 / no-intra-refresh / ctu=64 / min-cu-size=8 / no-rect / no-amp / max-tu-size=32 / tu-inter-depth=1 / tu-intra-depth=1 / limit-tu=0 / rdoq-level=2 / dynamic-rd=0.00 / no-ssim-rd / signhide / no-tskip / nr-intra=0 / nr-inter=0 / no-constrained-intra / no-strong-intra-smoothing / max-merge=3 / limit-refs=3 / limit-modes / me=3 / subme=5 / merange=57 / temporal-mvp / weightp / no-weightb / no-analyze-src-pics / deblock=0:0 / sao / no-sao-non-deblock / rd=4 / no-early-skip / rskip / no-fast-intra / no-tskip-fast / no-cu-lossless / no-b-intra / no-splitrd-skip / rdpenalty=0 / psy-rd=1.30 / psy-rdoq=2.00 / no-rd-refine / no-lossless / cbqpoffs=0 / crqpoffs=0 / rc=crf / crf=20.0 / qcomp=0.60 / qpstep=4 / stats-write=0 / stats-read=0 / ipratio=1.40 / pbratio=1.30 / aq-mode=2 / aq-strength=1.10 / cutree / zone-count=0 / no-strict-cbr / qg-size=32 / no-rc-grain / qpmax=69 / qpmin=0 / no-const-vbv / sar=1 / overscan=0 / videoformat=5 / range=0 / colorprim=2 / transfer=2 / colormatrix=2 / chromaloc=0 / display-window=0 / max-cll=0,0 / min-luma=0 / max-luma=1023 / log2-max-poc-lsb=8 / vui-timing-info / vui-hrd-info / slices=1 / no-opt-qp-pps / no-opt-ref-list-length-pps / no-multi-pass-opt-rps / scenecut-bias=0.05 / no-opt-cu-delta-qp / no-aq-motion / no-hdr / no-hdr-opt / no-dhdr10-opt / no-idr-recovery-sei / analysis-reuse-level=5 / scale-factor=0 / refine-intra=0 / refine-inter=0 / refine-mv=0 / no-limit-sao / ctu-info=0 / no-lowpass-dct / refine-mv-type=0 / copy-pic=1 / max-ausize-factor=1.0 / no-dynamic-refine / no-single-sei\nDefault : Yes\nForced : No\n\nAudio\nID : 2\nFormat : E-AC-3 JOC\nFormat/Info : Enhanced AC-3 with Joint Object Coding\nCommercial name : Dolby Digital Plus with Dolby Atmos\nCodec ID : A_EAC3\nDuration : 38 min 46 s\nBit rate mode : Constant\nBit rate : 768 kb/s\nChannel(s) : 6 channels\nChannel layout : L R C LFE Ls Rs\nSampling rate : 48.0 kHz\nFrame rate : 31.250 FPS (1536 SPF)\nCompression mode : Lossy\nStream size : 213 MiB (26%)\nLanguage : English\nService kind : Complete Main\nDefault : Yes\nForced : No\nComplexity index : 16\nNumber of dynamic objects : 15\nBed channel count : 1 channel\nBed channel configuration : LFE\n\nText #1\nID : 3\nFormat : UTF-8\nCodec ID : S_TEXT/UTF8\nCodec ID/Info : UTF-8 Plain Text\nDuration : 35 min 34 s\nBit rate : 41 b/s\nCount of elements : 428\nStream size : 10.9 KiB (0%)\nLanguage : English\nDefault : No\nForced : No\n\nText #2\nID : 4\nFormat : UTF-8\nCodec ID : S_TEXT/UTF8\nCodec ID/Info : UTF-8 Plain Text\nDuration : 34 min 54 s\nBit rate : 29 b/s\nCount of elements : 288\nStream size : 7.63 KiB (0%)\nLanguage : English\nDefault : No\nForced : No\n\nText #3\nID : 5\nFormat : UTF-8\nCodec ID : S_TEXT/UTF8\nCodec ID/Info : UTF-8 Plain Text\nDuration : 37 min 54 s\nBit rate : 26 b/s\nCount of elements : 282\nStream size : 7.30 KiB (0%)\nLanguage : French\nDefault : No\nForced : No\n\nText #4\nID : 6\nFormat : UTF-8\nCodec ID : S_TEXT/UTF8\nCodec ID/Info : UTF-8 Plain Text\nDuration : 37 min 54 s\nBit rate : 28 b/s\nCount of elements : 289\nStream size : 7.80 KiB (0%)\nLanguage : German\nDefault : No\nForced : No\n\nText #5\nID : 7\nFormat : UTF-8\nCodec ID : S_TEXT/UTF8\nCodec ID/Info : UTF-8 Plain Text\nDuration : 37 min 54 s\nBit rate : 27 b/s\nCount of elements : 295\nStream size : 7.70 KiB (0%)\nLanguage : Italian\nDefault : No\nForced : No\n\nText #6\nID : 8\nFormat : UTF-8\nCodec ID : S_TEXT/UTF8\nCodec ID/Info : UTF-8 Plain Text\nDuration : 37 min 54 s\nBit rate : 28 b/s\nCount of elements : 295\nStream size : 7.94 KiB (0%)\nLanguage : Portuguese\nDefault : No\nForced : No\n\nText #7\nID : 9\nFormat : UTF-8\nCodec ID : S_TEXT/UTF8\nCodec ID/Info : UTF-8 Plain Text\nDuration : 37 min 54 s\nBit rate : 27 b/s\nCount of elements : 295\nStream size : 7.57 KiB (0%)\nLanguage : Spanish\nDefault : No\nForced : No\n\nSource\n\n\n1080p DSNYP WEB-DL DEFLATE",
			"magnet": "magnet:?xt=urn:btih:E8EAD5180CC5344793D79DFF092A67058431C9F2&dn=The+Mandalorian+%282019%29+S01E01+Chapter+One+%281080p+DSNYP+Webrip+x265+10bit+EAC3+5.1+Atmos+-+Goki%29&tr=udp%3A%2F%2Ftracker.coppersurfer.tk%3A6969%2Fannounce&tr=udp%3A%2F%2Ftracker.opentrackr.org%3A1337%2Fannounce&tr=udp%3A%2F%2Ftracker.torrent.eu.org%3A451%2Fannounce&tr=udp%3A%2F%2Ftracker.internetwarriors.net%3A1337%2Fannounce&tr=http%3A%2F%2Ftracker.opentrackr.org%3A1337%2Fannounce&tr=udp%3A%2F%2Fdenis.stalker.upeer.me%3A6969%2Fannounce&tr=udp%3A%2F%2Ftracker.coppersurfer.tk%3A6969&tr=udp%3A%2F%2Ftracker.internetwarriors.net%3A1337&tr=udp%3A%2F%2F9.rarbg.me%3A2720%2Fannounce&tr=udp%3A%2F%2Fexplodie.org%3A6969%2Fannounce&tr=http%3A%2F%2Ftracker3.itzmx.com%3A6961%2Fannounce&tr=udp%3A%2F%2Ftracker.cyberia.is%3A6969%2Fannounce&tr=udp%3A%2F%2Fthetracker.org%2Fannounce&tr=udp%3A%2F%2Fopen.demonii.si%3A1337%2Fannounce&tr=udp%3A%2F%2Ftracker.zer0day.to%3A1337%2Fannounce&tr=udp%3A%2F%2Ftracker.leechers-paradise.org%3A6969%2Fannounce&tr=udp%3A%2F%2Fcoppersurfer.tk%3A6969%2Fannounce",
			"torrent_file": "data/users/1PzZMFqSxUTUMmgtom5YoJWiTQX9GXndb7/",
			"added": 1574902316
		}
	],
	"topic_vote": {},
	"next_comment_id": 1,
	"comment": {},
	"comment_vote": {}
}